<svg width="270" height="104.0" xmlns="http://www.w3.org/2000/svg"><text x="8" y="21.8" text-anchor="middle" font-family="Arial, sans-serif" font-size="8" fill="#666666">M</text><text x="8" y="34.8" text-anchor="middle" font-family="Arial, sans-serif" font-size="8" fill="#666666">T</text><text x="8" y="47.8" text-anchor="middle" font-family="Arial, sans-serif" font-size="8" fill="#666666">W</text><text x="8" y="60.8" text-anchor="middle" font-family="Arial, sans-serif" font-size="8" fill="#666666">T</text><text x="8" y="73.8" text-anchor="middle" font-family="Arial, sans-serif" font-size="8" fill="#666666">F</text><text x="8" y="86.8" text-anchor="middle" font-family="Arial, sans-serif" font-size="8" fill="#666666">S</text><text x="8" y="99.8" text-anchor="middle" font-family="Arial, sans-serif" font-size="8" fill="#666666">S</text><rect x="29" y="65.0" width="12" height="12" fill="#9be9a8"/><rect x="29.5" y="65.5" width="11" height="11" fill="none" stroke="#7fcc8d" stroke-width="1"/><rect x="29" y="78.0" width="12" height="12" fill="#9be9a8"/><rect x="29.5" y="78.5" width="11" height="11" fill="none" stroke="#7fcc8d" stroke-width="1"/><rect x="29" y="91.0" width="12" height="12" fill="#9be9a8"/><rect x="29.5" y="91.5" width="11" height="11" fill="none" stroke="#7fcc8d" stroke-width="1"/><rect x="42" y="13.0" width="12" height="12" fill="#9be9a8"/><rect x="42.5" y="13.5" width="11" height="11" fill="none" stroke="#7fcc8d" stroke-width="1"/><rect x="42" y="26.0" width="12" height="12" fill="#9be9a8"/><rect x="42.5" y="26.5" width="11" height="11" fill="none" stroke="#7fcc8d" stroke-width="1"/><rect x="42" y="39.0" width="12" height="12" fill="#9be9a8"/><rect x="42.5" y="39.5" width="11" height="11" fill="none" stroke="#7fcc8d" stroke-width="1"/><rect x="42" y="52.0" width="12" height="12" fill="#9be9a8"/><rect x="42.5" y="52.5" width="11" height="11" fill="none" stroke="#7fcc8d" stroke-width="1"/><rect x="42" y="65.0" width="12" height="12" fill="#9be9a8"/><rect x="42.5" y="65.5" width="11" height="11" fill="none" stroke="#7fcc8d" stroke-width="1"/><rect x="42" y="78.0" width="12" height="12" fill="#9be9a8"/><rect x="42.5" y="78.5" width="11" height="11" fill="none" stroke="#7fcc8d" stroke-width="1"/><rect x="42" y="91.0" width="12" height="12" fill="#9be9a8"/><rect x="42.5" y="91.5" width="11" height="11" fill="none" stroke="#7fcc8d" stroke-width="1"/><rect x="55" y="13.0" width="12" height="12" fill="#9be9a8"/><rect x="55.5" y="13.5" width="11" height="11" fill="none" stroke="#7fcc8d" stroke-width="1"/><rect x="55" y="26.0" width="12" height="12" fill="#9be9a8"/><rect x="55.5" y="26.5" width="11" height="11" fill="none" stroke="#7fcc8d" stroke-width="1"/><rect x="55" y="39.0" width="12" height="12" fill="#9be9a8"/><rect x="55.5" y="39.5" width="11" height="11" fill="none" stroke="#7fcc8d" stroke-width="1"/><rect x="55" y="52.0" width="12" height="12" fill="#9be9a8"/><rect x="55.5" y="52.5" width="11" height="11" fill="none" stroke="#7fcc8d" stroke-width="1"/><rect x="55" y="65.0" width="12" height="12" fill="#9be9a8"/><rect x="55.5" y="65.5" width="11" height="11" fill="none" stroke="#7fcc8d" stroke-width="1"/><rect x="55" y="78.0" width="12" height="12" fill="#9be9a8"/><rect x="55.5" y="78.5" width="11" height="11" fill="none" stroke="#7fcc8d" stroke-width="1"/><rect x="55" y="91.0" width="12" height="12" fill="#9be9a8"/><rect x="55.5" y="91.5" width="11" height="11" fill="none" stroke="#7fcc8d" stroke-width="1"/><rect x="68" y="13.0" width="12" height="12" fill="#9be9a8"/><rect x="68.5" y="13.5" width="11" height="11" fill="none" stroke="#7fcc8d" stroke-width="1"/><rect x="68" y="26.0" width="12" height="12" fill="#9be9a8"/><rect x="68.5" y="26.5" width="11" height="11" fill="none" stroke="#7fcc8d" stroke-width="1"/><rect x="68" y="39.0" width="12" height="12" fill="#9be9a8"/><rect x="68.5" y="39.5" width="11" height="11" fill="none" stroke="#7fcc8d" stroke-width="1"/><rect x="68" y="52.0" width="12" height="12" fill="#9be9a8"/><rect x="68.5" y="52.5" width="11" height="11" fill="none" stroke="#7fcc8d" stroke-width="1"/><rect x="68" y="65.0" width="12" height="12" fill="#9be9a8"/><rect x="68.5" y="65.5" width="11" height="11" fill="none" stroke="#7fcc8d" stroke-width="1"/><rect x="68" y="78.0" width="12" height="12" fill="#9be9a8"/><rect x="68.5" y="78.5" width="11" height="11" fill="none" stroke="#7fcc8d" stroke-width="1"/><rect x="68" y="91.0" width="12" height="12" fill="#9be9a8"/><rect x="68.5" y="91.5" width="11" height="11" fill="none" stroke="#7fcc8d" stroke-width="1"/><rect x="81" y="13.0" width="12" height="12" fill="#9be9a8"/><rect x="81.5" y="13.5" width="11" height="11" fill="none" stroke="#7fcc8d" stroke-width="1"/><rect x="81" y="26.0" width="12" height="12" fill="#9be9a8"/><rect x="81.5" y="26.5" width="11" height="11" fill="none" stroke="#7fcc8d" stroke-width="1"/><rect x="81" y="39.0" width="12" height="12" fill="#9be9a8"/><rect x="81.5" y="39.5" width="11" height="11" fill="none" stroke="#7fcc8d" stroke-width="1"/><rect x="81" y="52.0" width="12" height="12" fill="#9be9a8"/><rect x="81.5" y="52.5" width="11" height="11" fill="none" stroke="#7fcc8d" stroke-width="1"/><rect x="81" y="65.0" width="12" height="12" fill="#9be9a8"/><rect x="81.5" y="65.5" width="11" height="11" fill="none" stroke="#7fcc8d" stroke-width="1"/><rect x="81" y="78.0" width="12" height="12" fill="#9be9a8"/><rect x="81.5" y="78.5" width="11" height="11" fill="none" stroke="#7fcc8d" stroke-width="1"/><rect x="104" y="91.0" width="12" height="12" fill="#9be9a8"/><rect x="104.5" y="91.5" width="11" height="11" fill="none" stroke="#7fcc8d" stroke-width="1"/><rect x="117" y="13.0" width="12" height="12" fill="#9be9a8"/><rect x="117.5" y="13.5" width="11" height="11" fill="none" stroke="#7fcc8d" stroke-width="1"/><rect x="117" y="26.0" width="12" height="12" fill="#9be9a8"/><rect x="117.5" y="26.5" width="11" height="11" fill="none" stroke="#7fcc8d" stroke-width="1"/><rect x="117" y="39.0" width="12" height="12" fill="#9be9a8"/><rect x="117.5" y="39.5" width="11" height="11" fill="none" stroke="#7fcc8d" stroke-width="1"/><rect x="117" y="52.0" width="12" height="12" fill="#9be9a8"/><rect x="117.5" y="52.5" width="11" height="11" fill="none" stroke="#7fcc8d" stroke-width="1"/><rect x="117" y="65.0" width="12" height="12" fill="#9be9a8"/><rect x="117.5" y="65.5" width="11" height="11" fill="none" stroke="#7fcc8d" stroke-width="1"/><rect x="117" y="78.0" width="12" height="12" fill="#9be9a8"/><rect x="117.5" y="78.5" width="11" height="11" fill="none" stroke="#7fcc8d" stroke-width="1"/><rect x="117" y="91.0" width="12" height="12" fill="#9be9a8"/><rect x="117.5" y="91.5" width="11" height="11" fill="none" stroke="#7fcc8d" stroke-width="1"/><rect x="130" y="13.0" width="12" height="12" fill="#9be9a8"/><rect x="130.5" y="13.5" width="11" height="11" fill="none" stroke="#7fcc8d" stroke-width="1"/><rect x="130" y="26.0" width="12" height="12" fill="#9be9a8"/><rect x="130.5" y="26.5" width="11" height="11" fill="none" stroke="#7fcc8d" stroke-width="1"/><rect x="130" y="39.0" width="12" height="12" fill="#9be9a8"/><rect x="130.5" y="39.5" width="11" height="11" fill="none" stroke="#7fcc8d" stroke-width="1"/><rect x="130" y="52.0" width="12" height="12" fill="#9be9a8"/><rect x="130.5" y="52.5" width="11" height="11" fill="none" stroke="#7fcc8d" stroke-width="1"/><rect x="130" y="65.0" width="12" height="12" fill="#9be9a8"/><rect x="130.5" y="65.5" width="11" height="11" fill="none" stroke="#7fcc8d" stroke-width="1"/><rect x="130" y="78.0" width="12" height="12" fill="#9be9a8"/><rect x="130.5" y="78.5" width="11" height="11" fill="none" stroke="#7fcc8d" stroke-width="1"/><rect x="130" y="91.0" width="12" height="12" fill="#9be9a8"/><rect x="130.5" y="91.5" width="11" height="11" fill="none" stroke="#7fcc8d" stroke-width="1"/><rect x="143" y="13.0" width="12" height="12" fill="#9be9a8"/><rect x="143.5" y="13.5" width="11" height="11" fill="none" stroke="#7fcc8d" stroke-width="1"/><rect x="143" y="26.0" width="12" height="12" fill="#9be9a8"/><rect x="143.5" y="26.5" width="11" height="11" fill="none" stroke="#7fcc8d" stroke-width="1"/><rect x="143" y="39.0" width="12" height="12" fill="#9be9a8"/><rect x="143.5" y="39.5" width="11" height="11" fill="none" stroke="#7fcc8d" stroke-width="1"/><rect x="143" y="52.0" width="12" height="12" fill="#9be9a8"/><rect x="143.5" y="52.5" width="11" height="11" fill="none" stroke="#7fcc8d" stroke-width="1"/><rect x="143" y="65.0" width="12" height="12" fill="#9be9a8"/><rect x="143.5" y="65.5" width="11" height="11" fill="none" stroke="#7fcc8d" stroke-width="1"/><rect x="143" y="78.0" width="12" height="12" fill="#9be9a8"/><rect x="143.5" y="78.5" width="11" height="11" fill="none" stroke="#7fcc8d" stroke-width="1"/><rect x="143" y="91.0" width="12" height="12" fill="#9be9a8"/><rect x="143.5" y="91.5" width="11" height="11" fill="none" stroke="#7fcc8d" stroke-width="1"/><rect x="156" y="13.0" width="12" height="12" fill="#9be9a8"/><rect x="156.5" y="13.5" width="11" height="11" fill="none" stroke="#7fcc8d" stroke-width="1"/><rect x="156" y="26.0" width="12" height="12" fill="#9be9a8"/><rect x="156.5" y="26.5" width="11" height="11" fill="none" stroke="#7fcc8d" stroke-width="1"/><rect x="156" y="39.0" width="12" height="12" fill="#9be9a8"/><rect x="156.5" y="39.5" width="11" height="11" fill="none" stroke="#7fcc8d" stroke-width="1"/><rect x="156" y="52.0" width="12" height="12" fill="#9be9a8"/><rect x="156.5" y="52.5" width="11" height="11" fill="none" stroke="#7fcc8d" stroke-width="1"/><rect x="156" y="65.0" width="12" height="12" fill="#9be9a8"/><rect x="156.5" y="65.5" width="11" height="11" fill="none" stroke="#7fcc8d" stroke-width="1"/><rect x="156" y="78.0" width="12" height="12" fill="#9be9a8"/><rect x="156.5" y="78.5" width="11" height="11" fill="none" stroke="#7fcc8d" stroke-width="1"/><rect x="156" y="91.0" width="12" height="12" fill="#9be9a8"/><rect x="156.5" y="91.5" width="11" height="11" fill="none" stroke="#7fcc8d" stroke-width="1"/><rect x="169" y="13.0" width="12" height="12" fill="#9be9a8"/><rect x="169.5" y="13.5" width="11" height="11" fill="none" stroke="#7fcc8d" stroke-width="1"/><rect x="169" y="26.0" width="12" height="12" fill="#9be9a8"/><rect x="169.5" y="26.5" width="11" height="11" fill="none" stroke="#7fcc8d" stroke-width="1"/><rect x="192" y="39.0" width="12" height="12" fill="#9be9a8"/><rect x="192.5" y="39.5" width="11" height="11" fill="none" stroke="#7fcc8d" stroke-width="1"/><rect x="192" y="52.0" width="12" height="12" fill="#9be9a8"/><rect x="192.5" y="52.5" width="11" height="11" fill="none" stroke="#7fcc8d" stroke-width="1"/><rect x="192" y="65.0" width="12" height="12" fill="#9be9a8"/><rect x="192.5" y="65.5" width="11" height="11" fill="none" stroke="#7fcc8d" stroke-width="1"/><rect x="192" y="78.0" width="12" height="12" fill="#9be9a8"/><rect x="192.5" y="78.5" width="11" height="11" fill="none" stroke="#7fcc8d" stroke-width="1"/><rect x="192" y="91.0" width="12" height="12" fill="#9be9a8"/><rect x="192.5" y="91.5" width="11" height="11" fill="none" stroke="#7fcc8d" stroke-width="1"/><rect x="205" y="13.0" width="12" height="12" fill="#9be9a8"/><rect x="205.5" y="13.5" width="11" height="11" fill="none" stroke="#7fcc8d" stroke-width="1"/><rect x="205" y="26.0" width="12" height="12" fill="#9be9a8"/><rect x="205.5" y="26.5" width="11" height="11" fill="none" stroke="#7fcc8d" stroke-width="1"/><rect x="205" y="39.0" width="12" height="12" fill="#9be9a8"/><rect x="205.5" y="39.5" width="11" height="11" fill="none" stroke="#7fcc8d" stroke-width="1"/><rect x="205" y="52.0" width="12" height="12" fill="#9be9a8"/><rect x="205.5" y="52.5" width="11" height="11" fill="none" stroke="#7fcc8d" stroke-width="1"/><rect x="205" y="65.0" width="12" height="12" fill="#9be9a8"/><rect x="205.5" y="65.5" width="11" height="11" fill="none" stroke="#7fcc8d" stroke-width="1"/><rect x="205" y="78.0" width="12" height="12" fill="#9be9a8"/><rect x="205.5" y="78.5" width="11" height="11" fill="none" stroke="#7fcc8d" stroke-width="1"/><rect x="205" y="91.0" width="12" height="12" fill="#9be9a8"/><rect x="205.5" y="91.5" width="11" height="11" fill="none" stroke="#7fcc8d" stroke-width="1"/><rect x="218" y="13.0" width="12" height="12" fill="#9be9a8"/><rect x="218.5" y="13.5" width="11" height="11" fill="none" stroke="#7fcc8d" stroke-width="1"/><rect x="218" y="26.0" width="12" height="12" fill="#9be9a8"/><rect x="218.5" y="26.5" width="11" height="11" fill="none" stroke="#7fcc8d" stroke-width="1"/><rect x="218" y="39.0" width="12" height="12" fill="#9be9a8"/><rect x="218.5" y="39.5" width="11" height="11" fill="none" stroke="#7fcc8d" stroke-width="1"/><rect x="218" y="52.0" width="12" height="12" fill="#9be9a8"/><rect x="218.5" y="52.5" width="11" height="11" fill="none" stroke="#7fcc8d" stroke-width="1"/><rect x="218" y="65.0" width="12" height="12" fill="#9be9a8"/><rect x="218.5" y="65.5" width="11" height="11" fill="none" stroke="#7fcc8d" stroke-width="1"/><rect x="218" y="78.0" width="12" height="12" fill="#9be9a8"/><rect x="218.5" y="78.5" width="11" height="11" fill="none" stroke="#7fcc8d" stroke-width="1"/><rect x="218" y="91.0" width="12" height="12" fill="#9be9a8"/><rect x="218.5" y="91.5" width="11" height="11" fill="none" stroke="#7fcc8d" stroke-width="1"/><rect x="231" y="13.0" width="12" height="12" fill="#9be9a8"/><rect x="231.5" y="13.5" width="11" height="11" fill="none" stroke="#7fcc8d" stroke-width="1"/><rect x="231" y="26.0" width="12" height="12" fill="#9be9a8"/><rect x="231.5" y="26.5" width="11" height="11" fill="none" stroke="#7fcc8d" stroke-width="1"/><rect x="231" y="39.0" width="12" height="12" fill="#9be9a8"/><rect x="231.5" y="39.5" width="11" height="11" fill="none" stroke="#7fcc8d" stroke-width="1"/><rect x="231" y="52.0" width="12" height="12" fill="#9be9a8"/><rect x="231.5" y="52.5" width="11" height="11" fill="none" stroke="#7fcc8d" stroke-width="1"/><rect x="231" y="65.0" width="12" height="12" fill="#9be9a8"/><rect x="231.5" y="65.5" width="11" height="11" fill="none" stroke="#7fcc8d" stroke-width="1"/><rect x="231" y="78.0" width="12" height="12" fill="#9be9a8"/><rect x="231.5" y="78.5" width="11" height="11" fill="none" stroke="#7fcc8d" stroke-width="1"/><rect x="231" y="91.0" width="12" height="12" fill="#9be9a8"/><rect x="231.5" y="91.5" width="11" height="11" fill="none" stroke="#7fcc8d" stroke-width="1"/><rect x="244" y="13.0" width="12" height="12" fill="#9be9a8"/><rect x="244.5" y="13.5" width="11" height="11" fill="none" stroke="#7fcc8d" stroke-width="1"/><rect x="244" y="26.0" width="12" height="12" fill="#9be9a8"/><rect x="244.5" y="26.5" width="11" height="11" fill="none" stroke="#7fcc8d" stroke-width="1"/><rect x="244" y="39.0" width="12" height="12" fill="#9be9a8"/><rect x="244.5" y="39.5" width="11" height="11" fill="none" stroke="#7fcc8d" stroke-width="1"/><rect x="244" y="52.0" width="12" height="12" fill="#9be9a8"/><rect x="244.5" y="52.5" width="11" height="11" fill="none" stroke="#7fcc8d" stroke-width="1"/><rect x="244" y="65.0" width="12" height="12" fill="#9be9a8"/><rect x="244.5" y="65.5" width="11" height="11" fill="none" stroke="#7fcc8d" stroke-width="1"/><text x="43.2" y="10.0" text-anchor="start" font-family="Arial, sans-serif" font-size="8" fill="#666666">Nov</text><text x="118.2" y="10.0" text-anchor="start" font-family="Arial, sans-serif" font-size="8" fill="#666666">Dec</text><text x="206.2" y="10.0" text-anchor="start" font-family="Arial, sans-serif" font-size="8" fill="#666666">Jan</text></svg>