<svg width="601" height="118" xmlns="http://www.w3.org/2000/svg"><text x="8" y="22.8" text-anchor="middle" font-family="Arial, sans-serif" font-size="8" fill="#666666">M</text><text x="8" y="37.8" text-anchor="middle" font-family="Arial, sans-serif" font-size="8" fill="#666666">T</text><text x="8" y="52.8" text-anchor="middle" font-family="Arial, sans-serif" font-size="8" fill="#666666">W</text><text x="8" y="67.8" text-anchor="middle" font-family="Arial, sans-serif" font-size="8" fill="#666666">T</text><text x="8" y="82.8" text-anchor="middle" font-family="Arial, sans-serif" font-size="8" fill="#666666">F</text><text x="8" y="97.8" text-anchor="middle" font-family="Arial, sans-serif" font-size="8" fill="#666666">S</text><text x="8" y="112.8" text-anchor="middle" font-family="Arial, sans-serif" font-size="8" fill="#666666">S</text><rect x="16" y="43" width="14" height="14" fill="#fed7aa"/><rect x="16.5" y="43.5" width="13" height="13" fill="none" stroke="#e0ba8e" stroke-width="1"/><rect x="16" y="58" width="14" height="14" fill="#fef3e2"/><rect x="16.5" y="58.5" width="13" height="13" fill="none" stroke="#ded3c3" stroke-width="1"/><rect x="16" y="73" width="14" height="14" fill="#fef3e2"/><rect x="16.5" y="73.5" width="13" height="13" fill="none" stroke="#ded3c3" stroke-width="1"/><rect x="16" y="88" width="14" height="14" fill="#fef3e2"/><rect x="16.5" y="88.5" width="13" height="13" fill="none" stroke="#ded3c3" stroke-width="1"/><rect x="16" y="103" width="14" height="14" fill="#fef3e2"/><rect x="16.5" y="103.5" width="13" height="13" fill="none" stroke="#ded3c3" stroke-width="1"/><rect x="31" y="13" width="14" height="14" fill="#fef3e2"/><rect x="31.5" y="13.5" width="13" height="13" fill="none" stroke="#ded3c3" stroke-width="1"/><rect x="31" y="28" width="14" height="14" fill="#fdba74"/><rect x="31.5" y="28.5" width="13" height="13" fill="none" stroke="#e19f59" stroke-width="1"/><rect x="31" y="43" width="14" height="14" fill="#fdba74"/><rect x="31.5" y="43.5" width="13" height="13" fill="none" stroke="#e19f59" stroke-width="1"/><rect x="31" y="58" width="14" height="14" fill="#fef3e2"/><rect x="31.5" y="58.5" width="13" height="13" fill="none" stroke="#ded3c3" stroke-width="1"/><rect x="31" y="73" width="14" height="14" fill="#fef3e2"/><rect x="31.5" y="73.5" width="13" height="13" fill="none" stroke="#ded3c3" stroke-width="1"/><rect x="31" y="88" width="14" height="14" fill="#fef3e2"/><rect x="31.5" y="88.5" width="13" height="13" fill="none" stroke="#ded3c3" stroke-width="1"/><rect x="31" y="103" width="14" height="14" fill="#fef3e2"/><rect x="31.5" y="103.5" width="13" height="13" fill="none" stroke="#ded3c3" stroke-width="1"/><rect x="46" y="13" width="14" height="14" fill="#fef3e2"/><rect x="46.5" y="13.5" width="13" height="13" fill="none" stroke="#ded3c3" stroke-width="1"/><rect x="46" y="28" width="14" height="14" fill="#fdba74"/><rect x="46.5" y="28.5" width="13" height="13" fill="none" stroke="#e19f59" stroke-width="1"/><rect x="46" y="43" width="14" height="14" fill="#fef3e2"/><rect x="46.5" y="43.5" width="13" height="13" fill="none" stroke="#ded3c3" stroke-width="1"/><rect x="46" y="58" width="14" height="14" fill="#fef3e2"/><rect x="46.5" y="58.5" width="13" height="13" fill="none" stroke="#ded3c3" stroke-width="1"/><rect x="46" y="73" width="14" height="14" fill="#fed7aa"/><rect x="46.5" y="73.5" width="13" height="13" fill="none" stroke="#e0ba8e" stroke-width="1"/><rect x="46" y="88" width="14" height="14" fill="#fef3e2"/><rect x="46.5" y="88.5" width="13" height="13" fill="none" stroke="#ded3c3" stroke-width="1"/><rect x="46" y="103" width="14" height="14" fill="#fef3e2"/><rect x="46.5" y="103.5" width="13" height="13" fill="none" stroke="#ded3c3" stroke-width="1"/><rect x="61" y="13" width="14" height="14" fill="#fef3e2"/><rect x="61.5" y="13.5" width="13" height="13" fill="none" stroke="#ded3c3" stroke-width="1"/><rect x="61" y="28" width="14" height="14" fill="#fed7aa"/><rect x="61.5" y="28.5" width="13" height="13" fill="none" stroke="#e0ba8e" stroke-width="1"/><rect x="61" y="43" width="14" height="14" fill="#fed7aa"/><rect x="61.5" y="43.5" width="13" height="13" fill="none" stroke="#e0ba8e" stroke-width="1"/><rect x="61" y="58" width="14" height="14" fill="#fef3e2"/><rect x="61.5" y="58.5" width="13" height="13" fill="none" stroke="#ded3c3" stroke-width="1"/><rect x="61" y="73" width="14" height="14" fill="#fef3e2"/><rect x="61.5" y="73.5" width="13" height="13" fill="none" stroke="#ded3c3" stroke-width="1"/><rect x="61" y="88" width="14" height="14" fill="#fef3e2"/><rect x="61.5" y="88.5" width="13" height="13" fill="none" stroke="#ded3c3" stroke-width="1"/><rect x="61" y="103" width="14" height="14" fill="#fef3e2"/><rect x="61.5" y="103.5" width="13" height="13" fill="none" stroke="#ded3c3" stroke-width="1"/><rect x="76" y="13" width="14" height="14" fill="#fef3e2"/><rect x="76.5" y="13.5" width="13" height="13" fill="none" stroke="#ded3c3" stroke-width="1"/><rect x="76" y="28" width="14" height="14" fill="#fdba74"/><rect x="76.5" y="28.5" width="13" height="13" fill="none" stroke="#e19f59" stroke-width="1"/><rect x="76" y="43" width="14" height="14" fill="#fef3e2"/><rect x="76.5" y="43.5" width="13" height="13" fill="none" stroke="#ded3c3" stroke-width="1"/><rect x="76" y="58" width="14" height="14" fill="#fdba74"/><rect x="76.5" y="58.5" width="13" height="13" fill="none" stroke="#e19f59" stroke-width="1"/><rect x="76" y="73" width="14" height="14" fill="#fef3e2"/><rect x="76.5" y="73.5" width="13" height="13" fill="none" stroke="#ded3c3" stroke-width="1"/><rect x="76" y="88" width="14" height="14" fill="#fef3e2"/><rect x="76.5" y="88.5" width="13" height="13" fill="none" stroke="#ded3c3" stroke-width="1"/><rect x="76" y="103" width="14" height="14" fill="#fef3e2"/><rect x="76.5" y="103.5" width="13" height="13" fill="none" stroke="#ded3c3" stroke-width="1"/><rect x="91" y="13" width="14" height="14" fill="#fef3e2"/><rect x="91.5" y="13.5" width="13" height="13" fill="none" stroke="#ded3c3" stroke-width="1"/><rect x="91" y="28" width="14" height="14" fill="#fef3e2"/><rect x="91.5" y="28.5" width="13" height="13" fill="none" stroke="#ded3c3" stroke-width="1"/><rect x="91" y="43" width="14" height="14" fill="#fef3e2"/><rect x="91.5" y="43.5" width="13" height="13" fill="none" stroke="#ded3c3" stroke-width="1"/><rect x="91" y="58" width="14" height="14" fill="#fed7aa"/><rect x="91.5" y="58.5" width="13" height="13" fill="none" stroke="#e0ba8e" stroke-width="1"/><rect x="91" y="73" width="14" height="14" fill="#fed7aa"/><rect x="91.5" y="73.5" width="13" height="13" fill="none" stroke="#e0ba8e" stroke-width="1"/><rect x="91" y="88" width="14" height="14" fill="#fef3e2"/><rect x="91.5" y="88.5" width="13" height="13" fill="none" stroke="#ded3c3" stroke-width="1"/><rect x="91" y="103" width="14" height="14" fill="#fef3e2"/><rect x="91.5" y="103.5" width="13" height="13" fill="none" stroke="#ded3c3" stroke-width="1"/><rect x="106" y="13" width="14" height="14" fill="#fed7aa"/><rect x="106.5" y="13.5" width="13" height="13" fill="none" stroke="#e0ba8e" stroke-width="1"/><rect x="106" y="28" width="14" height="14" fill="#fed7aa"/><rect x="106.5" y="28.5" width="13" height="13" fill="none" stroke="#e0ba8e" stroke-width="1"/><rect x="106" y="43" width="14" height="14" fill="#fed7aa"/><rect x="106.5" y="43.5" width="13" height="13" fill="none" stroke="#e0ba8e" stroke-width="1"/><rect x="106" y="58" width="14" height="14" fill="#fef3e2"/><rect x="106.5" y="58.5" width="13" height="13" fill="none" stroke="#ded3c3" stroke-width="1"/><rect x="106" y="73" width="14" height="14" fill="#fef3e2"/><rect x="106.5" y="73.5" width="13" height="13" fill="none" stroke="#ded3c3" stroke-width="1"/><rect x="106" y="88" width="14" height="14" fill="#fef3e2"/><rect x="106.5" y="88.5" width="13" height="13" fill="none" stroke="#ded3c3" stroke-width="1"/><rect x="106" y="103" width="14" height="14" fill="#fef3e2"/><rect x="106.5" y="103.5" width="13" height="13" fill="none" stroke="#ded3c3" stroke-width="1"/><rect x="121" y="13" width="14" height="14" fill="#fed7aa"/><rect x="121.5" y="13.5" width="13" height="13" fill="none" stroke="#e0ba8e" stroke-width="1"/><rect x="121" y="28" width="14" height="14" fill="#fed7aa"/><rect x="121.5" y="28.5" width="13" height="13" fill="none" stroke="#e0ba8e" stroke-width="1"/><rect x="121" y="43" width="14" height="14" fill="#fed7aa"/><rect x="121.5" y="43.5" width="13" height="13" fill="none" stroke="#e0ba8e" stroke-width="1"/><rect x="121" y="58" width="14" height="14" fill="#fef3e2"/><rect x="121.5" y="58.5" width="13" height="13" fill="none" stroke="#ded3c3" stroke-width="1"/><rect x="121" y="73" width="14" height="14" fill="#fdba74"/><rect x="121.5" y="73.5" width="13" height="13" fill="none" stroke="#e19f59" stroke-width="1"/><rect x="121" y="88" width="14" height="14" fill="#fef3e2"/><rect x="121.5" y="88.5" width="13" height="13" fill="none" stroke="#ded3c3" stroke-width="1"/><rect x="121" y="103" width="14" height="14" fill="#fef3e2"/><rect x="121.5" y="103.5" width="13" height="13" fill="none" stroke="#ded3c3" stroke-width="1"/><rect x="136" y="13" width="14" height="14" fill="#fef3e2"/><rect x="136.5" y="13.5" width="13" height="13" fill="none" stroke="#ded3c3" stroke-width="1"/><rect x="136" y="28" width="14" height="14" fill="#fef3e2"/><rect x="136.5" y="28.5" width="13" height="13" fill="none" stroke="#ded3c3" stroke-width="1"/><rect x="136" y="43" width="14" height="14" fill="#fed7aa"/><rect x="136.5" y="43.5" width="13" height="13" fill="none" stroke="#e0ba8e" stroke-width="1"/><rect x="136" y="58" width="14" height="14" fill="#fef3e2"/><rect x="136.5" y="58.5" width="13" height="13" fill="none" stroke="#ded3c3" stroke-width="1"/><rect x="136" y="73" width="14" height="14" fill="#fef3e2"/><rect x="136.5" y="73.5" width="13" height="13" fill="none" stroke="#ded3c3" stroke-width="1"/><rect x="136" y="88" width="14" height="14" fill="#fef3e2"/><rect x="136.5" y="88.5" width="13" height="13" fill="none" stroke="#ded3c3" stroke-width="1"/><rect x="136" y="103" width="14" height="14" fill="#fef3e2"/><rect x="136.5" y="103.5" width="13" height="13" fill="none" stroke="#ded3c3" stroke-width="1"/><rect x="151" y="13" width="14" height="14" fill="#fed7aa"/><rect x="151.5" y="13.5" width="13" height="13" fill="none" stroke="#e0ba8e" stroke-width="1"/><rect x="151" y="28" width="14" height="14" fill="#fdba74"/><rect x="151.5" y="28.5" width="13" height="13" fill="none" stroke="#e19f59" stroke-width="1"/><rect x="151" y="43" width="14" height="14" fill="#fdba74"/><rect x="151.5" y="43.5" width="13" height="13" fill="none" stroke="#e19f59" stroke-width="1"/><rect x="151" y="58" width="14" height="14" fill="#fb923c"/><rect x="151.5" y="58.5" width="13" height="13" fill="none" stroke="#e17a1a" stroke-width="1"/><rect x="151" y="73" width="14" height="14" fill="#fed7aa"/><rect x="151.5" y="73.5" width="13" height="13" fill="none" stroke="#e0ba8e" stroke-width="1"/><rect x="151" y="88" width="14" height="14" fill="#fef3e2"/><rect x="151.5" y="88.5" width="13" height="13" fill="none" stroke="#ded3c3" stroke-width="1"/><rect x="151" y="103" width="14" height="14" fill="#fef3e2"/><rect x="151.5" y="103.5" width="13" height="13" fill="none" stroke="#ded3c3" stroke-width="1"/><rect x="166" y="13" width="14" height="14" fill="#fdba74"/><rect x="166.5" y="13.5" width="13" height="13" fill="none" stroke="#e19f59" stroke-width="1"/><rect x="166" y="28" width="14" height="14" fill="#fed7aa"/><rect x="166.5" y="28.5" width="13" height="13" fill="none" stroke="#e0ba8e" stroke-width="1"/><rect x="166" y="43" width="14" height="14" fill="#fb923c"/><rect x="166.5" y="43.5" width="13" height="13" fill="none" stroke="#e17a1a" stroke-width="1"/><rect x="166" y="58" width="14" height="14" fill="#fdba74"/><rect x="166.5" y="58.5" width="13" height="13" fill="none" stroke="#e19f59" stroke-width="1"/><rect x="166" y="73" width="14" height="14" fill="#fb923c"/><rect x="166.5" y="73.5" width="13" height="13" fill="none" stroke="#e17a1a" stroke-width="1"/><rect x="166" y="88" width="14" height="14" fill="#fef3e2"/><rect x="166.5" y="88.5" width="13" height="13" fill="none" stroke="#ded3c3" stroke-width="1"/><rect x="166" y="103" width="14" height="14" fill="#fef3e2"/><rect x="166.5" y="103.5" width="13" height="13" fill="none" stroke="#ded3c3" stroke-width="1"/><rect x="181" y="13" width="14" height="14" fill="#fed7aa"/><rect x="181.5" y="13.5" width="13" height="13" fill="none" stroke="#e0ba8e" stroke-width="1"/><rect x="181" y="28" width="14" height="14" fill="#fb923c"/><rect x="181.5" y="28.5" width="13" height="13" fill="none" stroke="#e17a1a" stroke-width="1"/><rect x="181" y="43" width="14" height="14" fill="#fb923c"/><rect x="181.5" y="43.5" width="13" height="13" fill="none" stroke="#e17a1a" stroke-width="1"/><rect x="181" y="58" width="14" height="14" fill="#fdba74"/><rect x="181.5" y="58.5" width="13" height="13" fill="none" stroke="#e19f59" stroke-width="1"/><rect x="181" y="73" width="14" height="14" fill="#fef3e2"/><rect x="181.5" y="73.5" width="13" height="13" fill="none" stroke="#ded3c3" stroke-width="1"/><rect x="181" y="88" width="14" height="14" fill="#fed7aa"/><rect x="181.5" y="88.5" width="13" height="13" fill="none" stroke="#e0ba8e" stroke-width="1"/><rect x="181" y="103" width="14" height="14" fill="#fef3e2"/><rect x="181.5" y="103.5" width="13" height="13" fill="none" stroke="#ded3c3" stroke-width="1"/><rect x="196" y="13" width="14" height="14" fill="#fed7aa"/><rect x="196.5" y="13.5" width="13" height="13" fill="none" stroke="#e0ba8e" stroke-width="1"/><rect x="196" y="28" width="14" height="14" fill="#fed7aa"/><rect x="196.5" y="28.5" width="13" height="13" fill="none" stroke="#e0ba8e" stroke-width="1"/><rect x="196" y="43" width="14" height="14" fill="#fef3e2"/><rect x="196.5" y="43.5" width="13" height="13" fill="none" stroke="#ded3c3" stroke-width="1"/><rect x="196" y="58" width="14" height="14" fill="#fed7aa"/><rect x="196.5" y="58.5" width="13" height="13" fill="none" stroke="#e0ba8e" stroke-width="1"/><rect x="196" y="73" width="14" height="14" fill="#fb923c"/><rect x="196.5" y="73.5" width="13" height="13" fill="none" stroke="#e17a1a" stroke-width="1"/><rect x="196" y="88" width="14" height="14" fill="#fed7aa"/><rect x="196.5" y="88.5" width="13" height="13" fill="none" stroke="#e0ba8e" stroke-width="1"/><rect x="196" y="103" width="14" height="14" fill="#fef3e2"/><rect x="196.5" y="103.5" width="13" height="13" fill="none" stroke="#ded3c3" stroke-width="1"/><rect x="211" y="13" width="14" height="14" fill="#fed7aa"/><rect x="211.5" y="13.5" width="13" height="13" fill="none" stroke="#e0ba8e" stroke-width="1"/><rect x="211" y="28" width="14" height="14" fill="#fef3e2"/><rect x="211.5" y="28.5" width="13" height="13" fill="none" stroke="#ded3c3" stroke-width="1"/><rect x="211" y="43" width="14" height="14" fill="#fb923c"/><rect x="211.5" y="43.5" width="13" height="13" fill="none" stroke="#e17a1a" stroke-width="1"/><rect x="211" y="58" width="14" height="14" fill="#fb923c"/><rect x="211.5" y="58.5" width="13" height="13" fill="none" stroke="#e17a1a" stroke-width="1"/><rect x="211" y="73" width="14" height="14" fill="#fed7aa"/><rect x="211.5" y="73.5" width="13" height="13" fill="none" stroke="#e0ba8e" stroke-width="1"/><rect x="211" y="88" width="14" height="14" fill="#fef3e2"/><rect x="211.5" y="88.5" width="13" height="13" fill="none" stroke="#ded3c3" stroke-width="1"/><rect x="211" y="103" width="14" height="14" fill="#fef3e2"/><rect x="211.5" y="103.5" width="13" height="13" fill="none" stroke="#ded3c3" stroke-width="1"/><rect x="226" y="13" width="14" height="14" fill="#fef3e2"/><rect x="226.5" y="13.5" width="13" height="13" fill="none" stroke="#ded3c3" stroke-width="1"/><rect x="226" y="28" width="14" height="14" fill="#fdba74"/><rect x="226.5" y="28.5" width="13" height="13" fill="none" stroke="#e19f59" stroke-width="1"/><rect x="226" y="43" width="14" height="14" fill="#fdba74"/><rect x="226.5" y="43.5" width="13" height="13" fill="none" stroke="#e19f59" stroke-width="1"/><rect x="226" y="58" width="14" height="14" fill="#fdba74"/><rect x="226.5" y="58.5" width="13" height="13" fill="none" stroke="#e19f59" stroke-width="1"/><rect x="226" y="73" width="14" height="14" fill="#fed7aa"/><rect x="226.5" y="73.5" width="13" height="13" fill="none" stroke="#e0ba8e" stroke-width="1"/><rect x="226" y="88" width="14" height="14" fill="#fed7aa"/><rect x="226.5" y="88.5" width="13" height="13" fill="none" stroke="#e0ba8e" stroke-width="1"/><rect x="226" y="103" width="14" height="14" fill="#fed7aa"/><rect x="226.5" y="103.5" width="13" height="13" fill="none" stroke="#e0ba8e" stroke-width="1"/><rect x="241" y="13" width="14" height="14" fill="#fef3e2"/><rect x="241.5" y="13.5" width="13" height="13" fill="none" stroke="#ded3c3" stroke-width="1"/><rect x="241" y="28" width="14" height="14" fill="#fed7aa"/><rect x="241.5" y="28.5" width="13" height="13" fill="none" stroke="#e0ba8e" stroke-width="1"/><rect x="241" y="43" width="14" height="14" fill="#fb923c"/><rect x="241.5" y="43.5" width="13" height="13" fill="none" stroke="#e17a1a" stroke-width="1"/><rect x="241" y="58" width="14" height="14" fill="#fef3e2"/><rect x="241.5" y="58.5" width="13" height="13" fill="none" stroke="#ded3c3" stroke-width="1"/><rect x="241" y="73" width="14" height="14" fill="#fed7aa"/><rect x="241.5" y="73.5" width="13" height="13" fill="none" stroke="#e0ba8e" stroke-width="1"/><rect x="241" y="88" width="14" height="14" fill="#fed7aa"/><rect x="241.5" y="88.5" width="13" height="13" fill="none" stroke="#e0ba8e" stroke-width="1"/><rect x="241" y="103" width="14" height="14" fill="#fef3e2"/><rect x="241.5" y="103.5" width="13" height="13" fill="none" stroke="#ded3c3" stroke-width="1"/><rect x="256" y="13" width="14" height="14" fill="#fed7aa"/><rect x="256.5" y="13.5" width="13" height="13" fill="none" stroke="#e0ba8e" stroke-width="1"/><rect x="256" y="28" width="14" height="14" fill="#fdba74"/><rect x="256.5" y="28.5" width="13" height="13" fill="none" stroke="#e19f59" stroke-width="1"/><rect x="256" y="43" width="14" height="14" fill="#fb923c"/><rect x="256.5" y="43.5" width="13" height="13" fill="none" stroke="#e17a1a" stroke-width="1"/><rect x="256" y="58" width="14" height="14" fill="#fed7aa"/><rect x="256.5" y="58.5" width="13" height="13" fill="none" stroke="#e0ba8e" stroke-width="1"/><rect x="256" y="73" width="14" height="14" fill="#fed7aa"/><rect x="256.5" y="73.5" width="13" height="13" fill="none" stroke="#e0ba8e" stroke-width="1"/><rect x="256" y="88" width="14" height="14" fill="#fef3e2"/><rect x="256.5" y="88.5" width="13" height="13" fill="none" stroke="#ded3c3" stroke-width="1"/><rect x="256" y="103" width="14" height="14" fill="#fef3e2"/><rect x="256.5" y="103.5" width="13" height="13" fill="none" stroke="#ded3c3" stroke-width="1"/><rect x="271" y="13" width="14" height="14" fill="#fed7aa"/><rect x="271.5" y="13.5" width="13" height="13" fill="none" stroke="#e0ba8e" stroke-width="1"/><rect x="271" y="28" width="14" height="14" fill="#fb923c"/><rect x="271.5" y="28.5" width="13" height="13" fill="none" stroke="#e17a1a" stroke-width="1"/><rect x="271" y="43" width="14" height="14" fill="#fdba74"/><rect x="271.5" y="43.5" width="13" height="13" fill="none" stroke="#e19f59" stroke-width="1"/><rect x="271" y="58" width="14" height="14" fill="#fdba74"/><rect x="271.5" y="58.5" width="13" height="13" fill="none" stroke="#e19f59" stroke-width="1"/><rect x="271" y="73" width="14" height="14" fill="#fdba74"/><rect x="271.5" y="73.5" width="13" height="13" fill="none" stroke="#e19f59" stroke-width="1"/><rect x="271" y="88" width="14" height="14" fill="#fed7aa"/><rect x="271.5" y="88.5" width="13" height="13" fill="none" stroke="#e0ba8e" stroke-width="1"/><rect x="271" y="103" width="14" height="14" fill="#fed7aa"/><rect x="271.5" y="103.5" width="13" height="13" fill="none" stroke="#e0ba8e" stroke-width="1"/><rect x="286" y="13" width="14" height="14" fill="#fdba74"/><rect x="286.5" y="13.5" width="13" height="13" fill="none" stroke="#e19f59" stroke-width="1"/><rect x="286" y="28" width="14" height="14" fill="#fb923c"/><rect x="286.5" y="28.5" width="13" height="13" fill="none" stroke="#e17a1a" stroke-width="1"/><rect x="286" y="43" width="14" height="14" fill="#fdba74"/><rect x="286.5" y="43.5" width="13" height="13" fill="none" stroke="#e19f59" stroke-width="1"/><rect x="286" y="58" width="14" height="14" fill="#fed7aa"/><rect x="286.5" y="58.5" width="13" height="13" fill="none" stroke="#e0ba8e" stroke-width="1"/><rect x="286" y="73" width="14" height="14" fill="#fb923c"/><rect x="286.5" y="73.5" width="13" height="13" fill="none" stroke="#e17a1a" stroke-width="1"/><rect x="286" y="88" width="14" height="14" fill="#fef3e2"/><rect x="286.5" y="88.5" width="13" height="13" fill="none" stroke="#ded3c3" stroke-width="1"/><rect x="286" y="103" width="14" height="14" fill="#fef3e2"/><rect x="286.5" y="103.5" width="13" height="13" fill="none" stroke="#ded3c3" stroke-width="1"/><rect x="301" y="13" width="14" height="14" fill="#fdba74"/><rect x="301.5" y="13.5" width="13" height="13" fill="none" stroke="#e19f59" stroke-width="1"/><rect x="301" y="28" width="14" height="14" fill="#fb923c"/><rect x="301.5" y="28.5" width="13" height="13" fill="none" stroke="#e17a1a" stroke-width="1"/><rect x="301" y="43" width="14" height="14" fill="#fb923c"/><rect x="301.5" y="43.5" width="13" height="13" fill="none" stroke="#e17a1a" stroke-width="1"/><rect x="301" y="58" width="14" height="14" fill="#fed7aa"/><rect x="301.5" y="58.5" width="13" height="13" fill="none" stroke="#e0ba8e" stroke-width="1"/><rect x="301" y="73" width="14" height="14" fill="#fb923c"/><rect x="301.5" y="73.5" width="13" height="13" fill="none" stroke="#e17a1a" stroke-width="1"/><rect x="301" y="88" width="14" height="14" fill="#fef3e2"/><rect x="301.5" y="88.5" width="13" height="13" fill="none" stroke="#ded3c3" stroke-width="1"/><rect x="301" y="103" width="14" height="14" fill="#fef3e2"/><rect x="301.5" y="103.5" width="13" height="13" fill="none" stroke="#ded3c3" stroke-width="1"/><rect x="316" y="13" width="14" height="14" fill="#fdba74"/><rect x="316.5" y="13.5" width="13" height="13" fill="none" stroke="#e19f59" stroke-width="1"/><rect x="316" y="28" width="14" height="14" fill="#fdba74"/><rect x="316.5" y="28.5" width="13" height="13" fill="none" stroke="#e19f59" stroke-width="1"/><rect x="316" y="43" width="14" height="14" fill="#fed7aa"/><rect x="316.5" y="43.5" width="13" height="13" fill="none" stroke="#e0ba8e" stroke-width="1"/><rect x="316" y="58" width="14" height="14" fill="#fb923c"/><rect x="316.5" y="58.5" width="13" height="13" fill="none" stroke="#e17a1a" stroke-width="1"/><rect x="316" y="73" width="14" height="14" fill="#fef3e2"/><rect x="316.5" y="73.5" width="13" height="13" fill="none" stroke="#ded3c3" stroke-width="1"/><rect x="316" y="88" width="14" height="14" fill="#fed7aa"/><rect x="316.5" y="88.5" width="13" height="13" fill="none" stroke="#e0ba8e" stroke-width="1"/><rect x="316" y="103" width="14" height="14" fill="#fef3e2"/><rect x="316.5" y="103.5" width="13" height="13" fill="none" stroke="#ded3c3" stroke-width="1"/><rect x="331" y="13" width="14" height="14" fill="#fb923c"/><rect x="331.5" y="13.5" width="13" height="13" fill="none" stroke="#e17a1a" stroke-width="1"/><rect x="331" y="28" width="14" height="14" fill="#fdba74"/><rect x="331.5" y="28.5" width="13" height="13" fill="none" stroke="#e19f59" stroke-width="1"/><rect x="331" y="43" width="14" height="14" fill="#fef3e2"/><rect x="331.5" y="43.5" width="13" height="13" fill="none" stroke="#ded3c3" stroke-width="1"/><rect x="331" y="58" width="14" height="14" fill="#fed7aa"/><rect x="331.5" y="58.5" width="13" height="13" fill="none" stroke="#e0ba8e" stroke-width="1"/><rect x="331" y="73" width="14" height="14" fill="#fb923c"/><rect x="331.5" y="73.5" width="13" height="13" fill="none" stroke="#e17a1a" stroke-width="1"/><rect x="331" y="88" width="14" height="14" fill="#fef3e2"/><rect x="331.5" y="88.5" width="13" height="13" fill="none" stroke="#ded3c3" stroke-width="1"/><rect x="331" y="103" width="14" height="14" fill="#fef3e2"/><rect x="331.5" y="103.5" width="13" height="13" fill="none" stroke="#ded3c3" stroke-width="1"/><rect x="346" y="13" width="14" height="14" fill="#fb923c"/><rect x="346.5" y="13.5" width="13" height="13" fill="none" stroke="#e17a1a" stroke-width="1"/><rect x="346" y="28" width="14" height="14" fill="#fdba74"/><rect x="346.5" y="28.5" width="13" height="13" fill="none" stroke="#e19f59" stroke-width="1"/><rect x="346" y="43" width="14" height="14" fill="#f97316"/><rect x="346.5" y="43.5" width="13" height="13" fill="none" stroke="#e05c00" stroke-width="1"/><rect x="346" y="58" width="14" height="14" fill="#f97316"/><rect x="346.5" y="58.5" width="13" height="13" fill="none" stroke="#e05c00" stroke-width="1"/><rect x="346" y="73" width="14" height="14" fill="#fed7aa"/><rect x="346.5" y="73.5" width="13" height="13" fill="none" stroke="#e0ba8e" stroke-width="1"/><rect x="346" y="88" width="14" height="14" fill="#fdba74"/><rect x="346.5" y="88.5" width="13" height="13" fill="none" stroke="#e19f59" stroke-width="1"/><rect x="346" y="103" width="14" height="14" fill="#fef3e2"/><rect x="346.5" y="103.5" width="13" height="13" fill="none" stroke="#ded3c3" stroke-width="1"/><rect x="361" y="13" width="14" height="14" fill="#fed7aa"/><rect x="361.5" y="13.5" width="13" height="13" fill="none" stroke="#e0ba8e" stroke-width="1"/><rect x="361" y="28" width="14" height="14" fill="#f97316"/><rect x="361.5" y="28.5" width="13" height="13" fill="none" stroke="#e05c00" stroke-width="1"/><rect x="361" y="43" width="14" height="14" fill="#fdba74"/><rect x="361.5" y="43.5" width="13" height="13" fill="none" stroke="#e19f59" stroke-width="1"/><rect x="361" y="58" width="14" height="14" fill="#fb923c"/><rect x="361.5" y="58.5" width="13" height="13" fill="none" stroke="#e17a1a" stroke-width="1"/><rect x="361" y="73" width="14" height="14" fill="#f97316"/><rect x="361.5" y="73.5" width="13" height="13" fill="none" stroke="#e05c00" stroke-width="1"/><rect x="361" y="88" width="14" height="14" fill="#fed7aa"/><rect x="361.5" y="88.5" width="13" height="13" fill="none" stroke="#e0ba8e" stroke-width="1"/><rect x="361" y="103" width="14" height="14" fill="#fed7aa"/><rect x="361.5" y="103.5" width="13" height="13" fill="none" stroke="#e0ba8e" stroke-width="1"/><rect x="376" y="13" width="14" height="14" fill="#f97316"/><rect x="376.5" y="13.5" width="13" height="13" fill="none" stroke="#e05c00" stroke-width="1"/><rect x="376" y="28" width="14" height="14" fill="#fdba74"/><rect x="376.5" y="28.5" width="13" height="13" fill="none" stroke="#e19f59" stroke-width="1"/><rect x="376" y="43" width="14" height="14" fill="#fdba74"/><rect x="376.5" y="43.5" width="13" height="13" fill="none" stroke="#e19f59" stroke-width="1"/><rect x="376" y="58" width="14" height="14" fill="#fed7aa"/><rect x="376.5" y="58.5" width="13" height="13" fill="none" stroke="#e0ba8e" stroke-width="1"/><rect x="376" y="73" width="14" height="14" fill="#f97316"/><rect x="376.5" y="73.5" width="13" height="13" fill="none" stroke="#e05c00" stroke-width="1"/><rect x="376" y="88" width="14" height="14" fill="#fef3e2"/><rect x="376.5" y="88.5" width="13" height="13" fill="none" stroke="#ded3c3" stroke-width="1"/><rect x="376" y="103" width="14" height="14" fill="#fef3e2"/><rect x="376.5" y="103.5" width="13" height="13" fill="none" stroke="#ded3c3" stroke-width="1"/><rect x="391" y="13" width="14" height="14" fill="#fdba74"/><rect x="391.5" y="13.5" width="13" height="13" fill="none" stroke="#e19f59" stroke-width="1"/><rect x="391" y="28" width="14" height="14" fill="#fed7aa"/><rect x="391.5" y="28.5" width="13" height="13" fill="none" stroke="#e0ba8e" stroke-width="1"/><rect x="391" y="43" width="14" height="14" fill="#fdba74"/><rect x="391.5" y="43.5" width="13" height="13" fill="none" stroke="#e19f59" stroke-width="1"/><rect x="391" y="58" width="14" height="14" fill="#fed7aa"/><rect x="391.5" y="58.5" width="13" height="13" fill="none" stroke="#e0ba8e" stroke-width="1"/><rect x="391" y="73" width="14" height="14" fill="#fdba74"/><rect x="391.5" y="73.5" width="13" height="13" fill="none" stroke="#e19f59" stroke-width="1"/><rect x="391" y="88" width="14" height="14" fill="#fef3e2"/><rect x="391.5" y="88.5" width="13" height="13" fill="none" stroke="#ded3c3" stroke-width="1"/><rect x="391" y="103" width="14" height="14" fill="#fef3e2"/><rect x="391.5" y="103.5" width="13" height="13" fill="none" stroke="#ded3c3" stroke-width="1"/><rect x="406" y="13" width="14" height="14" fill="#f97316"/><rect x="406.5" y="13.5" width="13" height="13" fill="none" stroke="#e05c00" stroke-width="1"/><rect x="406" y="28" width="14" height="14" fill="#f97316"/><rect x="406.5" y="28.5" width="13" height="13" fill="none" stroke="#e05c00" stroke-width="1"/><rect x="406" y="43" width="14" height="14" fill="#fb923c"/><rect x="406.5" y="43.5" width="13" height="13" fill="none" stroke="#e17a1a" stroke-width="1"/><rect x="406" y="58" width="14" height="14" fill="#fdba74"/><rect x="406.5" y="58.5" width="13" height="13" fill="none" stroke="#e19f59" stroke-width="1"/><rect x="406" y="73" width="14" height="14" fill="#f97316"/><rect x="406.5" y="73.5" width="13" height="13" fill="none" stroke="#e05c00" stroke-width="1"/><rect x="406" y="88" width="14" height="14" fill="#fdba74"/><rect x="406.5" y="88.5" width="13" height="13" fill="none" stroke="#e19f59" stroke-width="1"/><rect x="406" y="103" width="14" height="14" fill="#fdba74"/><rect x="406.5" y="103.5" width="13" height="13" fill="none" stroke="#e19f59" stroke-width="1"/><rect x="421" y="13" width="14" height="14" fill="#fdba74"/><rect x="421.5" y="13.5" width="13" height="13" fill="none" stroke="#e19f59" stroke-width="1"/><rect x="421" y="28" width="14" height="14" fill="#f97316"/><rect x="421.5" y="28.5" width="13" height="13" fill="none" stroke="#e05c00" stroke-width="1"/><rect x="421" y="43" width="14" height="14" fill="#fb923c"/><rect x="421.5" y="43.5" width="13" height="13" fill="none" stroke="#e17a1a" stroke-width="1"/><rect x="421" y="58" width="14" height="14" fill="#fdba74"/><rect x="421.5" y="58.5" width="13" height="13" fill="none" stroke="#e19f59" stroke-width="1"/><rect x="421" y="73" width="14" height="14" fill="#fdba74"/><rect x="421.5" y="73.5" width="13" height="13" fill="none" stroke="#e19f59" stroke-width="1"/><rect x="421" y="88" width="14" height="14" fill="#fdba74"/><rect x="421.5" y="88.5" width="13" height="13" fill="none" stroke="#e19f59" stroke-width="1"/><rect x="421" y="103" width="14" height="14" fill="#fef3e2"/><rect x="421.5" y="103.5" width="13" height="13" fill="none" stroke="#ded3c3" stroke-width="1"/><rect x="436" y="13" width="14" height="14" fill="#fdba74"/><rect x="436.5" y="13.5" width="13" height="13" fill="none" stroke="#e19f59" stroke-width="1"/><rect x="436" y="28" width="14" height="14" fill="#f97316"/><rect x="436.5" y="28.5" width="13" height="13" fill="none" stroke="#e05c00" stroke-width="1"/><rect x="436" y="43" width="14" height="14" fill="#fb923c"/><rect x="436.5" y="43.5" width="13" height="13" fill="none" stroke="#e17a1a" stroke-width="1"/><rect x="436" y="58" width="14" height="14" fill="#f97316"/><rect x="436.5" y="58.5" width="13" height="13" fill="none" stroke="#e05c00" stroke-width="1"/><rect x="436" y="73" width="14" height="14" fill="#f97316"/><rect x="436.5" y="73.5" width="13" height="13" fill="none" stroke="#e05c00" stroke-width="1"/><rect x="436" y="88" width="14" height="14" fill="#fef3e2"/><rect x="436.5" y="88.5" width="13" height="13" fill="none" stroke="#ded3c3" stroke-width="1"/><rect x="436" y="103" width="14" height="14" fill="#fdba74"/><rect x="436.5" y="103.5" width="13" height="13" fill="none" stroke="#e19f59" stroke-width="1"/><rect x="451" y="13" width="14" height="14" fill="#f97316"/><rect x="451.5" y="13.5" width="13" height="13" fill="none" stroke="#e05c00" stroke-width="1"/><rect x="451" y="28" width="14" height="14" fill="#fb923c"/><rect x="451.5" y="28.5" width="13" height="13" fill="none" stroke="#e17a1a" stroke-width="1"/><rect x="451" y="43" width="14" height="14" fill="#fdba74"/><rect x="451.5" y="43.5" width="13" height="13" fill="none" stroke="#e19f59" stroke-width="1"/><rect x="451" y="58" width="14" height="14" fill="#fed7aa"/><rect x="451.5" y="58.5" width="13" height="13" fill="none" stroke="#e0ba8e" stroke-width="1"/><rect x="451" y="73" width="14" height="14" fill="#f97316"/><rect x="451.5" y="73.5" width="13" height="13" fill="none" stroke="#e05c00" stroke-width="1"/><rect x="451" y="88" width="14" height="14" fill="#fef3e2"/><rect x="451.5" y="88.5" width="13" height="13" fill="none" stroke="#ded3c3" stroke-width="1"/><rect x="451" y="103" width="14" height="14" fill="#fef3e2"/><rect x="451.5" y="103.5" width="13" height="13" fill="none" stroke="#ded3c3" stroke-width="1"/><rect x="466" y="13" width="14" height="14" fill="#fdba74"/><rect x="466.5" y="13.5" width="13" height="13" fill="none" stroke="#e19f59" stroke-width="1"/><rect x="466" y="28" width="14" height="14" fill="#fb923c"/><rect x="466.5" y="28.5" width="13" height="13" fill="none" stroke="#e17a1a" stroke-width="1"/><rect x="466" y="43" width="14" height="14" fill="#fed7aa"/><rect x="466.5" y="43.5" width="13" height="13" fill="none" stroke="#e0ba8e" stroke-width="1"/><rect x="466" y="58" width="14" height="14" fill="#f97316"/><rect x="466.5" y="58.5" width="13" height="13" fill="none" stroke="#e05c00" stroke-width="1"/><rect x="466" y="73" width="14" height="14" fill="#f97316"/><rect x="466.5" y="73.5" width="13" height="13" fill="none" stroke="#e05c00" stroke-width="1"/><rect x="466" y="88" width="14" height="14" fill="#fdba74"/><rect x="466.5" y="88.5" width="13" height="13" fill="none" stroke="#e19f59" stroke-width="1"/><rect x="466" y="103" width="14" height="14" fill="#fed7aa"/><rect x="466.5" y="103.5" width="13" height="13" fill="none" stroke="#e0ba8e" stroke-width="1"/><rect x="481" y="13" width="14" height="14" fill="#f97316"/><rect x="481.5" y="13.5" width="13" height="13" fill="none" stroke="#e05c00" stroke-width="1"/><rect x="481" y="28" width="14" height="14" fill="#fb923c"/><rect x="481.5" y="28.5" width="13" height="13" fill="none" stroke="#e17a1a" stroke-width="1"/><rect x="481" y="43" width="14" height="14" fill="#f97316"/><rect x="481.5" y="43.5" width="13" height="13" fill="none" stroke="#e05c00" stroke-width="1"/><rect x="481" y="58" width="14" height="14" fill="#fb923c"/><rect x="481.5" y="58.5" width="13" height="13" fill="none" stroke="#e17a1a" stroke-width="1"/><rect x="481" y="73" width="14" height="14" fill="#fb923c"/><rect x="481.5" y="73.5" width="13" height="13" fill="none" stroke="#e17a1a" stroke-width="1"/><rect x="481" y="88" width="14" height="14" fill="#fef3e2"/><rect x="481.5" y="88.5" width="13" height="13" fill="none" stroke="#ded3c3" stroke-width="1"/><rect x="481" y="103" width="14" height="14" fill="#fed7aa"/><rect x="481.5" y="103.5" width="13" height="13" fill="none" stroke="#e0ba8e" stroke-width="1"/><rect x="496" y="13" width="14" height="14" fill="#fed7aa"/><rect x="496.5" y="13.5" width="13" height="13" fill="none" stroke="#e0ba8e" stroke-width="1"/><rect x="496" y="28" width="14" height="14" fill="#f97316"/><rect x="496.5" y="28.5" width="13" height="13" fill="none" stroke="#e05c00" stroke-width="1"/><rect x="496" y="43" width="14" height="14" fill="#fb923c"/><rect x="496.5" y="43.5" width="13" height="13" fill="none" stroke="#e17a1a" stroke-width="1"/><rect x="496" y="58" width="14" height="14" fill="#fdba74"/><rect x="496.5" y="58.5" width="13" height="13" fill="none" stroke="#e19f59" stroke-width="1"/><rect x="496" y="73" width="14" height="14" fill="#fed7aa"/><rect x="496.5" y="73.5" width="13" height="13" fill="none" stroke="#e0ba8e" stroke-width="1"/><rect x="496" y="88" width="14" height="14" fill="#fef3e2"/><rect x="496.5" y="88.5" width="13" height="13" fill="none" stroke="#ded3c3" stroke-width="1"/><rect x="496" y="103" width="14" height="14" fill="#fdba74"/><rect x="496.5" y="103.5" width="13" height="13" fill="none" stroke="#e19f59" stroke-width="1"/><rect x="511" y="13" width="14" height="14" fill="#f97316"/><rect x="511.5" y="13.5" width="13" height="13" fill="none" stroke="#e05c00" stroke-width="1"/><rect x="511" y="28" width="14" height="14" fill="#f97316"/><rect x="511.5" y="28.5" width="13" height="13" fill="none" stroke="#e05c00" stroke-width="1"/><rect x="511" y="43" width="14" height="14" fill="#fb923c"/><rect x="511.5" y="43.5" width="13" height="13" fill="none" stroke="#e17a1a" stroke-width="1"/><rect x="511" y="58" width="14" height="14" fill="#fdba74"/><rect x="511.5" y="58.5" width="13" height="13" fill="none" stroke="#e19f59" stroke-width="1"/><rect x="511" y="73" width="14" height="14" fill="#fdba74"/><rect x="511.5" y="73.5" width="13" height="13" fill="none" stroke="#e19f59" stroke-width="1"/><rect x="511" y="88" width="14" height="14" fill="#fed7aa"/><rect x="511.5" y="88.5" width="13" height="13" fill="none" stroke="#e0ba8e" stroke-width="1"/><rect x="511" y="103" width="14" height="14" fill="#fdba74"/><rect x="511.5" y="103.5" width="13" height="13" fill="none" stroke="#e19f59" stroke-width="1"/><rect x="526" y="13" width="14" height="14" fill="#f97316"/><rect x="526.5" y="13.5" width="13" height="13" fill="none" stroke="#e05c00" stroke-width="1"/><rect x="526" y="28" width="14" height="14" fill="#fdba74"/><rect x="526.5" y="28.5" width="13" height="13" fill="none" stroke="#e19f59" stroke-width="1"/><rect x="526" y="43" width="14" height="14" fill="#fdba74"/><rect x="526.5" y="43.5" width="13" height="13" fill="none" stroke="#e19f59" stroke-width="1"/><rect x="526" y="58" width="14" height="14" fill="#fed7aa"/><rect x="526.5" y="58.5" width="13" height="13" fill="none" stroke="#e0ba8e" stroke-width="1"/><rect x="526" y="73" width="14" height="14" fill="#fb923c"/><rect x="526.5" y="73.5" width="13" height="13" fill="none" stroke="#e17a1a" stroke-width="1"/><rect x="526" y="88" width="14" height="14" fill="#fdba74"/><rect x="526.5" y="88.5" width="13" height="13" fill="none" stroke="#e19f59" stroke-width="1"/><rect x="526" y="103" width="14" height="14" fill="#fef3e2"/><rect x="526.5" y="103.5" width="13" height="13" fill="none" stroke="#ded3c3" stroke-width="1"/><rect x="541" y="13" width="14" height="14" fill="#fdba74"/><rect x="541.5" y="13.5" width="13" height="13" fill="none" stroke="#e19f59" stroke-width="1"/><rect x="541" y="28" width="14" height="14" fill="#fdba74"/><rect x="541.5" y="28.5" width="13" height="13" fill="none" stroke="#e19f59" stroke-width="1"/><rect x="541" y="43" width="14" height="14" fill="#fdba74"/><rect x="541.5" y="43.5" width="13" height="13" fill="none" stroke="#e19f59" stroke-width="1"/><rect x="541" y="58" width="14" height="14" fill="#fef3e2"/><rect x="541.5" y="58.5" width="13" height="13" fill="none" stroke="#ded3c3" stroke-width="1"/><rect x="541" y="73" width="14" height="14" fill="#fdba74"/><rect x="541.5" y="73.5" width="13" height="13" fill="none" stroke="#e19f59" stroke-width="1"/><rect x="541" y="88" width="14" height="14" fill="#fef3e2"/><rect x="541.5" y="88.5" width="13" height="13" fill="none" stroke="#ded3c3" stroke-width="1"/><rect x="541" y="103" width="14" height="14" fill="#fdba74"/><rect x="541.5" y="103.5" width="13" height="13" fill="none" stroke="#e19f59" stroke-width="1"/><rect x="556" y="13" width="14" height="14" fill="#fdba74"/><rect x="556.5" y="13.5" width="13" height="13" fill="none" stroke="#e19f59" stroke-width="1"/><rect x="556" y="28" width="14" height="14" fill="#fef3e2"/><rect x="556.5" y="28.5" width="13" height="13" fill="none" stroke="#ded3c3" stroke-width="1"/><rect x="556" y="43" width="14" height="14" fill="#fdba74"/><rect x="556.5" y="43.5" width="13" height="13" fill="none" stroke="#e19f59" stroke-width="1"/><rect x="556" y="58" width="14" height="14" fill="#fb923c"/><rect x="556.5" y="58.5" width="13" height="13" fill="none" stroke="#e17a1a" stroke-width="1"/><rect x="556" y="73" width="14" height="14" fill="#fdba74"/><rect x="556.5" y="73.5" width="13" height="13" fill="none" stroke="#e19f59" stroke-width="1"/><rect x="556" y="88" width="14" height="14" fill="#fef3e2"/><rect x="556.5" y="88.5" width="13" height="13" fill="none" stroke="#ded3c3" stroke-width="1"/><rect x="556" y="103" width="14" height="14" fill="#fef3e2"/><rect x="556.5" y="103.5" width="13" height="13" fill="none" stroke="#ded3c3" stroke-width="1"/><rect x="571" y="13" width="14" height="14" fill="#fed7aa"/><rect x="571.5" y="13.5" width="13" height="13" fill="none" stroke="#e0ba8e" stroke-width="1"/><rect x="571" y="28" width="14" height="14" fill="#fdba74"/><rect x="571.5" y="28.5" width="13" height="13" fill="none" stroke="#e19f59" stroke-width="1"/><rect x="571" y="43" width="14" height="14" fill="#fef3e2"/><rect x="571.5" y="43.5" width="13" height="13" fill="none" stroke="#ded3c3" stroke-width="1"/><rect x="571" y="58" width="14" height="14" fill="#fdba74"/><rect x="571.5" y="58.5" width="13" height="13" fill="none" stroke="#e19f59" stroke-width="1"/><rect x="571" y="73" width="14" height="14" fill="#fb923c"/><rect x="571.5" y="73.5" width="13" height="13" fill="none" stroke="#e17a1a" stroke-width="1"/><rect x="571" y="88" width="14" height="14" fill="#fef3e2"/><rect x="571.5" y="88.5" width="13" height="13" fill="none" stroke="#ded3c3" stroke-width="1"/><rect x="571" y="103" width="14" height="14" fill="#fef3e2"/><rect x="571.5" y="103.5" width="13" height="13" fill="none" stroke="#ded3c3" stroke-width="1"/><rect x="586" y="13" width="14" height="14" fill="#fef3e2"/><rect x="586.5" y="13.5" width="13" height="13" fill="none" stroke="#ded3c3" stroke-width="1"/><rect x="586" y="28" width="14" height="14" fill="#fb923c"/><rect x="586.5" y="28.5" width="13" height="13" fill="none" stroke="#e17a1a" stroke-width="1"/><rect x="586" y="43" width="14" height="14" fill="#fb923c"/><rect x="586.5" y="43.5" width="13" height="13" fill="none" stroke="#e17a1a" stroke-width="1"/><rect x="586" y="58" width="14" height="14" fill="#fb923c"/><rect x="586.5" y="58.5" width="13" height="13" fill="none" stroke="#e17a1a" stroke-width="1"/><rect x="586" y="73" width="14" height="14" fill="#fed7aa"/><rect x="586.5" y="73.5" width="13" height="13" fill="none" stroke="#e0ba8e" stroke-width="1"/><rect x="586" y="88" width="14" height="14" fill="#fed7aa"/><rect x="586.5" y="88.5" width="13" height="13" fill="none" stroke="#e0ba8e" stroke-width="1"/><rect x="586" y="103" width="14" height="14" fill="#fdba74"/><rect x="586.5" y="103.5" width="13" height="13" fill="none" stroke="#e19f59" stroke-width="1"/><text x="31" y="10" text-anchor="middle" font-family="Arial, sans-serif" font-size="8" fill="#666666">Jan</text><text x="91" y="10" text-anchor="middle" font-family="Arial, sans-serif" font-size="8" fill="#666666">Feb</text><text x="151" y="10" text-anchor="middle" font-family="Arial, sans-serif" font-size="8" fill="#666666">Mar</text><text x="226" y="10" text-anchor="middle" font-family="Arial, sans-serif" font-size="8" fill="#666666">Apr</text><text x="286" y="10" text-anchor="middle" font-family="Arial, sans-serif" font-size="8" fill="#666666">May</text><text x="346" y="10" text-anchor="middle" font-family="Arial, sans-serif" font-size="8" fill="#666666">Jun</text><text x="421" y="10" text-anchor="middle" font-family="Arial, sans-serif" font-size="8" fill="#666666">Jul</text><text x="481" y="10" text-anchor="middle" font-family="Arial, sans-serif" font-size="8" fill="#666666">Aug</text><text x="541" y="10" text-anchor="middle" font-family="Arial, sans-serif" font-size="8" fill="#666666">Sep</text></svg>