<svg width="251" height="35" xmlns="http://www.w3.org/2000/svg"><rect x="0" y="0" width="35" height="35" fill="#9be9a8"/><rect x="0.5" y="0.5" width="34" height="34" fill="none" stroke="#499559" stroke-width="1"/><text x="17" y="24.0" text-anchor="middle" font-family="Arial, sans-serif" font-size="20" fill="#000000">1</text><rect x="36" y="0" width="35" height="35" fill="#40c463"/><rect x="36.5" y="0.5" width="34" height="34" fill="none" stroke="#007f1d" stroke-width="1"/><text x="53" y="24.0" text-anchor="middle" font-family="Arial, sans-serif" font-size="20" fill="#000000">2</text><rect x="72" y="0" width="35" height="35" fill="#30a14e"/><rect x="72.5" y="0.5" width="34" height="34" fill="none" stroke="#006713" stroke-width="1"/><text x="89" y="24.0" text-anchor="middle" font-family="Arial, sans-serif" font-size="20" fill="#000000">3</text><rect x="108" y="0" width="35" height="35" fill="#216e39"/><rect x="108.5" y="0.5" width="34" height="34" fill="none" stroke="#004512" stroke-width="1"/><text x="125" y="24.0" text-anchor="middle" font-family="Arial, sans-serif" font-size="20" fill="#000000">4</text><rect x="144" y="0" width="35" height="35" fill="#9be9a8"/><rect x="144.5" y="0.5" width="34" height="34" fill="none" stroke="#499559" stroke-width="1"/><text x="161" y="24.0" text-anchor="middle" font-family="Arial, sans-serif" font-size="20" fill="#000000">5</text><rect x="180" y="0" width="35" height="35" fill="#40c463"/><rect x="180.5" y="0.5" width="34" height="34" fill="none" stroke="#007f1d" stroke-width="1"/><text x="197" y="24.0" text-anchor="middle" font-family="Arial, sans-serif" font-size="20" fill="#000000">6</text><rect x="216" y="0" width="35" height="35" fill="#30a14e"/><rect x="216.5" y="0.5" width="34" height="34" fill="none" stroke="#006713" stroke-width="1"/><text x="233" y="24.0" text-anchor="middle" font-family="Arial, sans-serif" font-size="20" fill="#000000">7</text></svg>