<svg width="189" height="18" xmlns="http://www.w3.org/2000/svg"><rect x="0" y="0" width="18" height="18" fill="#f0f9ff"/><rect x="0.5" y="0.5" width="17" height="17" fill="none" stroke="#939ba0" stroke-width="1"/><text x="9" y="11.8" text-anchor="middle" font-family="Arial, sans-serif" font-size="8" fill="#000000">0</text><rect x="19" y="0" width="18" height="18" fill="#bae6fd"/><rect x="19.5" y="0.5" width="17" height="17" fill="none" stroke="#6790a5" stroke-width="1"/><text x="28" y="11.8" text-anchor="middle" font-family="Arial, sans-serif" font-size="8" fill="#000000">1</text><rect x="38" y="0" width="18" height="18" fill="#7dd3fc"/><rect x="38.5" y="0.5" width="17" height="17" fill="none" stroke="#2985ab" stroke-width="1"/><text x="47" y="11.8" text-anchor="middle" font-family="Arial, sans-serif" font-size="8" fill="#000000">2</text><rect x="57" y="0" width="18" height="18" fill="#38bdf8"/><rect x="57.5" y="0.5" width="17" height="17" fill="none" stroke="#0076ad" stroke-width="1"/><text x="66" y="11.8" text-anchor="middle" font-family="Arial, sans-serif" font-size="8" fill="#000000">3</text><rect x="76" y="0" width="18" height="18" fill="#0ea5e9"/><rect x="76.5" y="0.5" width="17" height="17" fill="none" stroke="#0065a5" stroke-width="1"/><text x="85" y="11.8" text-anchor="middle" font-family="Arial, sans-serif" font-size="8" fill="#000000">4</text><rect x="95" y="0" width="18" height="18" fill="#bae6fd"/><rect x="95.5" y="0.5" width="17" height="17" fill="none" stroke="#6790a5" stroke-width="1"/><text x="104" y="11.8" text-anchor="middle" font-family="Arial, sans-serif" font-size="8" fill="#000000">5</text><rect x="114" y="0" width="18" height="18" fill="#7dd3fc"/><rect x="114.5" y="0.5" width="17" height="17" fill="none" stroke="#2985ab" stroke-width="1"/><text x="123" y="11.8" text-anchor="middle" font-family="Arial, sans-serif" font-size="8" fill="#000000">6</text><rect x="133" y="0" width="18" height="18" fill="#38bdf8"/><rect x="133.5" y="0.5" width="17" height="17" fill="none" stroke="#0076ad" stroke-width="1"/><text x="142" y="11.8" text-anchor="middle" font-family="Arial, sans-serif" font-size="8" fill="#000000">7</text><rect x="152" y="0" width="18" height="18" fill="#0ea5e9"/><rect x="152.5" y="0.5" width="17" height="17" fill="none" stroke="#0065a5" stroke-width="1"/><text x="161" y="11.8" text-anchor="middle" font-family="Arial, sans-serif" font-size="8" fill="#000000">8</text><rect x="171" y="0" width="18" height="18" fill="#bae6fd"/><rect x="171.5" y="0.5" width="17" height="17" fill="none" stroke="#6790a5" stroke-width="1"/><text x="180" y="11.8" text-anchor="middle" font-family="Arial, sans-serif" font-size="8" fill="#000000">9</text></svg>