<svg width="379" height="18" xmlns="http://www.w3.org/2000/svg"><rect x="0" y="0" width="18" height="18" fill="#00ffff"/><rect x="0.5" y="0.5" width="17" height="17" fill="none" stroke="#00a5a7" stroke-width="1"/><text x="9" y="11.8" text-anchor="middle" font-family="Arial, sans-serif" font-size="8" fill="#000000">0</text><rect x="19" y="0" width="18" height="18" fill="#00dbff"/><rect x="19.5" y="0.5" width="17" height="17" fill="none" stroke="#008cae" stroke-width="1"/><text x="28" y="11.8" text-anchor="middle" font-family="Arial, sans-serif" font-size="8" fill="#000000">1</text><rect x="38" y="0" width="18" height="18" fill="#96a6ff"/><rect x="38.5" y="0.5" width="17" height="17" fill="none" stroke="#5661b4" stroke-width="1"/><text x="47" y="11.8" text-anchor="middle" font-family="Arial, sans-serif" font-size="8" fill="#000000">2</text><rect x="57" y="0" width="18" height="18" fill="#db69ff"/><rect x="57.5" y="0.5" width="17" height="17" fill="none" stroke="#9517b6" stroke-width="1"/><text x="66" y="11.8" text-anchor="middle" font-family="Arial, sans-serif" font-size="8" fill="#000000">3</text><rect x="76" y="0" width="18" height="18" fill="#ff1493"/><rect x="76.5" y="0.5" width="17" height="17" fill="none" stroke="#b6005a" stroke-width="1"/><text x="85" y="11.8" text-anchor="middle" font-family="Arial, sans-serif" font-size="8" fill="#000000">4</text><rect x="95" y="0" width="18" height="18" fill="#00dbff"/><rect x="95.5" y="0.5" width="17" height="17" fill="none" stroke="#008cae" stroke-width="1"/><text x="104" y="11.8" text-anchor="middle" font-family="Arial, sans-serif" font-size="8" fill="#000000">5</text><rect x="114" y="0" width="18" height="18" fill="#ff1493"/><rect x="114.5" y="0.5" width="17" height="17" fill="none" stroke="#b6005a" stroke-width="1"/><text x="123" y="11.8" text-anchor="middle" font-family="Arial, sans-serif" font-size="8" fill="#000000">4</text><rect x="133" y="0" width="18" height="18" fill="#db69ff"/><rect x="133.5" y="0.5" width="17" height="17" fill="none" stroke="#9517b6" stroke-width="1"/><text x="142" y="11.8" text-anchor="middle" font-family="Arial, sans-serif" font-size="8" fill="#000000">3</text><rect x="152" y="0" width="18" height="18" fill="#96a6ff"/><rect x="152.5" y="0.5" width="17" height="17" fill="none" stroke="#5661b4" stroke-width="1"/><text x="161" y="11.8" text-anchor="middle" font-family="Arial, sans-serif" font-size="8" fill="#000000">2</text><rect x="171" y="0" width="18" height="18" fill="#00dbff"/><rect x="171.5" y="0.5" width="17" height="17" fill="none" stroke="#008cae" stroke-width="1"/><text x="180" y="11.8" text-anchor="middle" font-family="Arial, sans-serif" font-size="8" fill="#000000">1</text><rect x="190" y="0" width="18" height="18" fill="#00ffff"/><rect x="190.5" y="0.5" width="17" height="17" fill="none" stroke="#00a5a7" stroke-width="1"/><text x="199" y="11.8" text-anchor="middle" font-family="Arial, sans-serif" font-size="8" fill="#000000">0</text><rect x="209" y="0" width="18" height="18" fill="#96a6ff"/><rect x="209.5" y="0.5" width="17" height="17" fill="none" stroke="#5661b4" stroke-width="1"/><text x="218" y="11.8" text-anchor="middle" font-family="Arial, sans-serif" font-size="8" fill="#000000">2</text><rect x="228" y="0" width="18" height="18" fill="#ff1493"/><rect x="228.5" y="0.5" width="17" height="17" fill="none" stroke="#b6005a" stroke-width="1"/><text x="237" y="11.8" text-anchor="middle" font-family="Arial, sans-serif" font-size="8" fill="#000000">4</text><rect x="247" y="0" width="18" height="18" fill="#00dbff"/><rect x="247.5" y="0.5" width="17" height="17" fill="none" stroke="#008cae" stroke-width="1"/><text x="256" y="11.8" text-anchor="middle" font-family="Arial, sans-serif" font-size="8" fill="#000000">5</text><rect x="266" y="0" width="18" height="18" fill="#db69ff"/><rect x="266.5" y="0.5" width="17" height="17" fill="none" stroke="#9517b6" stroke-width="1"/><text x="275" y="11.8" text-anchor="middle" font-family="Arial, sans-serif" font-size="8" fill="#000000">3</text><rect x="285" y="0" width="18" height="18" fill="#00dbff"/><rect x="285.5" y="0.5" width="17" height="17" fill="none" stroke="#008cae" stroke-width="1"/><text x="294" y="11.8" text-anchor="middle" font-family="Arial, sans-serif" font-size="8" fill="#000000">1</text><rect x="304" y="0" width="18" height="18" fill="#ff1493"/><rect x="304.5" y="0.5" width="17" height="17" fill="none" stroke="#b6005a" stroke-width="1"/><text x="313" y="11.8" text-anchor="middle" font-family="Arial, sans-serif" font-size="8" fill="#000000">4</text><rect x="323" y="0" width="18" height="18" fill="#00dbff"/><rect x="323.5" y="0.5" width="17" height="17" fill="none" stroke="#008cae" stroke-width="1"/><text x="332" y="11.8" text-anchor="middle" font-family="Arial, sans-serif" font-size="8" fill="#000000">5</text><rect x="342" y="0" width="18" height="18" fill="#96a6ff"/><rect x="342.5" y="0.5" width="17" height="17" fill="none" stroke="#5661b4" stroke-width="1"/><text x="351" y="11.8" text-anchor="middle" font-family="Arial, sans-serif" font-size="8" fill="#000000">2</text><rect x="361" y="0" width="18" height="18" fill="#00ffff"/><rect x="361.5" y="0.5" width="17" height="17" fill="none" stroke="#00a5a7" stroke-width="1"/><text x="370" y="11.8" text-anchor="middle" font-family="Arial, sans-serif" font-size="8" fill="#000000">0</text></svg>